<svg height="50" width="50" xmlns="http://www.w3.org/2000/svg">
  <svg viewBox="0 0 768 768" xml:space="preserve" xmlns="http://www.w3.org/2000/svg" xmlns:xlink="http://www.w3.org/1999/xlink">
    <path d="M249 169c9-9 19-8 29-5l39 12c4 1 7 0 9-4l43-88c2-5 5-10 10-13 10-4 19-1 25 9a1130 1130 0 0 1 45 91c2 5 5 6 10 5l44-14c18-4 29 11 26 25l-20 97-2 9 21-20 11-10c11-10 25-8 32 6l8 15c2 4 5 5 9 3l52-17c7-3 14-6 22-7 16-4 28 7 24 23l-20 90c-1 5 0 7 4 9l26 14c14 9 15 22 3 33l-54 43-86 67c-4 3-4 5-2 9l20 41c5 9 4 17-2 24s-13 11-23 10l-93-14-28-5c-5 0-6 0-6 6v79c0 27-21 43-47 37-9-2-17-6-22-13-4-5-6-11-6-17v-84c0-8-1-9-9-7l-105 16-18 2c-16-1-29-18-20-35l18-36c5-9 5-9-3-15l-105-83-32-25c-11-10-10-24 3-32l12-7 14-8c4-2 4-4 4-8l-20-84-1-12c0-14 10-23 24-19l54 18 21 7c5 2 7 0 8-3l8-15c7-14 23-17 34-6l26 26c1 1 2 3 4 3l-5-26-16-78c-2-6-1-13 3-19m31 183-55-53h-1l-8 18c-5 11-10 13-22 9l-51-19-18-5 2 7 20 82c1 7-1 11-8 15l-18 8-8 4 5 5 58 45 75 59c9 7 11 14 5 24l-21 35-2 5 85-13 45-7c8-1 15 3 17 10l1 10v101c1 3 2 5 5 6 4 0 6-2 7-5l1-9v-96c0-12 7-18 18-17l109 17c7 1 13 3 21 3l-4-6-20-34c-5-9-3-17 4-22l133-104c2-2 5-4 7-8l-25-10c-9-4-11-8-9-18l16-66 5-21-8 2-57 20c-18 6-20 6-28-11l-7-15-4 2-46 47-13 13c-5 4-10 4-15 2-5-3-7-7-7-13l3-16 19-104 5-28-5 1-39 12c-9 3-14 1-18-8l-35-72-6-13-4 5-38 78c-5 11-9 13-21 9l-35-11c-6-2-7-1-6 5l21 108c2 11 5 23 5 34 1 6-2 10-7 13-5 2-10 2-15-2l-8-8z"/>
  </svg>
  <style>
    @media (prefers-color-scheme:light){:root{filter:none}}@media (prefers-color-scheme:dark){:root{filter:invert(100%)}}
  </style>
</svg>
