<svg height="768" xmlns="http://www.w3.org/2000/svg">
  <svg viewBox="0 0 768 768" xml:space="preserve" xmlns="http://www.w3.org/2000/svg" xmlns:xlink="http://www.w3.org/1999/xlink">
    <path d="M249 169c9-9 19-8 29-5l39 12c4 1 7 0 9-4l43-88c2-5 5-10 10-13 10-4 19-1 25 9a1130 1130 0 0 1 45 91c2 5 5 6 10 5l44-14c18-4 29 11 26 25l-20 97-2 9 21-20 11-10c11-10 25-8 32 6l8 15c2 4 5 5 9 3l52-17c7-3 14-6 22-7 16-4 28 7 24 23l-20 90c-1 5 0 7 4 9l26 14c14 9 15 22 3 33l-54 43-86 67c-4 3-4 5-2 9l20 41c5 9 4 17-2 24s-13 11-23 10l-93-14-28-5c-5 0-6 0-6 6v79c0 27-21 43-47 37-9-2-17-6-22-13-4-5-6-11-6-17v-84c0-8-1-9-9-7l-105 16-18 2c-16-1-29-18-20-35l18-36c5-9 5-9-3-15l-105-83-32-25c-11-10-10-24 3-32l12-7 14-8c4-2 4-4 4-8l-20-84-1-12c0-14 10-23 24-19l54 18 21 7c5 2 7 0 8-3l8-15c7-14 23-17 34-6l26 26c1 1 2 3 4 3l-5-26-16-78c-2-6-1-13 3-19m31 183-55-53h-1l-8 18c-5 11-10 13-22 9l-51-19-18-5 2 7 20 82c1 7-1 11-8 15l-18 8-8 4 5 5 58 45 75 59c9 7 11 14 5 24l-21 35-2 5 85-13 45-7c8-1 15 3 17 10l1 10v101c1 3 2 5 5 6 4 0 6-2 7-5l1-9v-96c0-12 7-18 18-17l109 17c7 1 13 3 21 3l-4-6-20-34c-5-9-3-17 4-22l133-104c2-2 5-4 7-8l-25-10c-9-4-11-8-9-18l16-66 5-21-8 2-57 20c-18 6-20 6-28-11l-7-15-4 2-46 47-13 13c-5 4-10 4-15 2-5-3-7-7-7-13l3-16 19-104 5-28-5 1-39 12c-9 3-14 1-18-8l-35-72-6-13-4 5-38 78c-5 11-9 13-21 9l-35-11c-6-2-7-1-6 5l21 108c2 11 5 23 5 34 1 6-2 10-7 13-5 2-10 2-15-2l-8-8z"/>
    <path d="M209 45c19-16 41-21 64-13 22 8 35 25 39 48s-3 43-21 58a63 63 0 0 1-64 9c-14-5-22-15-29-27-7-10-9-22-8-35 1-16 7-29 19-40m9 8c-9 8-15 19-16 31h13c2 0 3-1 4-3 1-13 5-26 14-36-6 1-11 4-15 8m62 11 4 15c0 2 0 5 3 5 4 0 9 1 13-1v-4c-2-7-4-13-9-19-5-7-12-12-21-15 4 6 8 12 10 19m20 37c1-3 0-5-3-5h-9c-2 0-4 1-4 4-1 12-5 24-12 34 15-6 24-17 28-33m-72 33h3c-6-9-10-19-12-29-1-9 0-9-11-9h-1c-5 0-5 1-4 6 3 14 12 24 25 32m33-81c-1-1-2-3-4-3l-1 5 1 18c-1 11-1 11 10 11 5 0 6-1 5-6-1-9-5-17-11-25m-20 0c-7 9-10 19-11 30l12 1c2 0 3-1 3-3V48l-4 5m21 73c4-6 7-12 9-19 3-11 3-11-9-11-4 0-6 2-6 6l1 20 1 8 4-4m-19 2c4 2 2-1 3-3l-1-20c1-8 0-9-9-9-6 0-7 1-5 7 2 9 5 18 12 25zm455-83h35c4 0 6 1 6 6v148c0 14 1 12-11 12H585l-9-1c-3 0-5-2-5-5s1-5 4-6h145c8 0 8 0 8-8-2-42-1-84-1-126 0-6 0-7-6-7H556c-4 0-6 1-6 6v51c0 5-1 7-6 7-4 0-5-4-5-7V50c0-3 1-4 5-5h154zM40 100l-2-10c4-1 8 1 12 1 8 1 8 1 10-6l2-3c6 4 10 11 16 17-1-13-5-25-6-38 4 0 6 2 8 3 3 2 5 1 6-2l10-16c5 6 7 13 12 19 4 0 6-4 12-4l-7 37c7-5 10-11 17-16l1 2c3 8 3 7 11 7 4-1 8-2 12-1l-3 13c-1 2-2 5 0 6 3 4 1 6-2 8l-22 18c-3 2-4 4-3 8 2 3 2 7 3 11-11 0-21-5-31-4-11 0-21 4-31 4-1-4 1-8 2-12 1-2 0-4-2-6l-22-19c-3-2-5-4-2-7 2-3 0-6-1-10zm584 587h55c3 1 5 3 4 6 0 3-1 5-5 5H503c-3 0-7-1-7 5 0 4 1 6 6 6h172c6 0 9 1 9 5s-4 6-10 6H496c-7 0-11-3-11-10v-37c0-7 2-8 9-8a255854 255854 0 0 1 186 0c2 1 4 3 4 6-1 3-2 5-5 5H502c-3 0-6 0-6 5s2 6 7 6h121zM79 545H41c-7 0-11-2-10-7 0-4 2-5 10-5h82c5 0 10 1 14 4l3 2c7 14 19 22 29 32 11 10 8 21 8 33 0 2-3 2-4 2l-32 1-83-1-26 1c-7 0-8-1-8-8v-47c0-3-1-7 4-8 4 0 7 4 7 8v33c3 2 5 2 7 2l37-1c1 0 4 0 3-2 0-3-2-3-4-3-3 0-6 0-7-4l-8-8c2-3 2-6 1-9 4 0 7 2 11-1v-5c5 2 6-2 7-5 2-3 0-4-3-4m15 41 31 1c4 0 6-2 6-7v-27c1-6-1-8-6-8H86c2 8 3 9 9 8v8c3 0 7-3 9-1 3 2 1 7 3 9-4 4-9 6-11 11l-2 1h-5c-2-1-3 0-4 2 0 3 2 3 4 3h5m68 9c2 0 4 0 4-3 1-4 0-7-4-9-3 3-8 4-10 2-3-2-1-8 3-13l-11-10c-2 10-2 20-2 30 0 3 3 3 5 3h15zm469 0 1-24c0-8 4-13 13-13h63c8 0 13 4 13 11 2 18 1 36 1 54-1 8-6 12-14 12h-64c-7 0-12-4-12-12l-1-28m12-8c-2 5 2 4 5 4h57l4-1 1-2c1-1 0-2-1-2l-4-1h-56l-6 2m57 21h5c2 0 6 0 5-4 0-3-3-2-5-2h-60l-2 2c-1 2 0 3 1 3l5 1h51m-27 16h31c3 0 6-1 6-5h-67v3c9 3 20 1 30 2m4-50h33c-1-4-3-5-5-5h-57c-2 0-4 1-4 5h33zm56-39h-49c-9 0-15-4-15-12-2-10-2-19 0-28 0-7 5-10 11-10h1c9 0 9 0 10-9 0-6 4-10 10-10h23c5 0 9 4 9 11 0 8 0 8 8 8 11 0 15 4 15 15v19c0 11-5 16-16 16h-7m2-28h6c5 0 6-1 6-5 0-5-2-6-6-6h-58c-4 0-6 1-6 6 0 4 2 5 6 5h52m-25-31-4 1c-2 0-4 1-4 4s2 4 5 4h10c3 0 5-1 5-5 0-3-2-4-5-4h-7zM203 692l3 6c2 9 8 11 17 10h35c6 0 9 4 6 9-1 2-2 2-4 2l-11 1H47l-5-1c-3-2-4-3-3-6 0-3 2-4 5-4l14-1h93c3 0 4-2 5-4l19-37c2-3 3-7 7-7 5 0 6 4 8 8l13 24m-19-11c-3-1-3 1-4 3l-11 20v4h29l-14-27z"/>
    <path d="M588 88h-23c-5 0-7-1-6-6V72c-1-5 1-6 6-6h148c5 0 7 1 6 6v9c0 7 0 7-7 7H588zM84 237c-1 2-2 4-4 3-3-3-5 0-7 1-13 8-26 8-38 1s-20-17-20-31c-1-24 13-40 37-42 20-1 38 14 41 36 0 2 1 4 4 5 4 1 6 5 6 9s-3 7-7 7c-7 1-9 6-12 11m-48-8c7 5 15 8 24 6 15-4 24-17 21-31-2-14-15-25-29-24-11 1-20 7-25 18-4 12 0 22 9 31zm-2 203h19c8 0 15 4 14 14v56c0 11-5 15-15 15H28c-9 0-14-4-14-14v-54c0-14 3-17 17-17h3m22 72v-57c0-2-1-4-4-4H29c-3 0-4 2-4 5v54c0 3 2 4 4 4h22c2 0 3 0 5-2zm107 108c5 6 6 12 3 19-4 6-10 9-17 8s-12-5-14-11c-1-4-3-5-6-5H80c-3 0-5 1-6 4-2 10-13 15-21 11-10-3-14-13-10-21 5-9 16-13 24-8l9 3a10266 10266 0 0 1 66-3c5-4 14-3 21 3M58 629c5-2 8-6 5-9-2-2-4-3-6-2s-4 2-4 5c-1 2 1 4 5 6m91-11-2 1c-2 2-2 4-1 6 2 2 4 4 6 3 2 0 4-2 4-4 1-3-2-6-7-6zm517-468-1-5v-43c0-4 1-6 6-6h18c4 0 5 1 5 5v46c0 3-1 4-4 4l-18 1c-2 0-5 0-6-2zm-33-17 4 1c4 0 6 2 6 6 0 5-3 6-7 6h-7c-3 0-5 0-6 4-1 3-4 2-5 0-1-4-4-4-7-4h-12c-4 0-6-2-6-6s2-6 6-6l15-1v-1c-6-3-8-10-13-14-3-3-3-6-1-9 2-4 5-2 8-1l6 5 8-10c4 2 6 7 10 10l6-4c3-2 5-3 8 0s3 8 0 11l-4 2-2 1c-2 2-2 5-4 6s-5 1-6 4h3zm21 47h51l8 1c3 0 5 2 5 5s-2 5-5 5H585c-3 0-4-2-4-5s1-5 4-5l7-1h62zm-63-18h121c3 0 5 2 5 5s-2 6-6 6l-17-1H588c-3 0-7 0-7-5 0-4 3-6 7-5h3zM33 336c12-3 23 5 25 16 2 13-7 24-19 25-11 1-22-9-22-21 0-9 6-17 16-20m9 26c4-5 4-8 1-11-3-2-6-4-9-1s-5 6-2 10c2 4 5 4 10 2zm690-89h-1c-7 3-7 3-7 12v6c0 4-1 7-6 7-3 0-5-3-5-7v-28a22 22 0 0 1 40-12l1 4c1 3 0 5-3 7-3 1-5 0-7-2-2-3-4-6-8-7-5-1-11 3-12 8 0 2 1 4 3 4 6-1 6 3 5 8zm16 41v8h2c8 0 9 1 9 8l-1 3c-4 3-8 4-9 9-1 2-3 1-4 1l-5-1c-2 2 0 5-2 7-3-1-2-5-3-6-3-1-6 1-9 1l-4-7c-7-3-7-9-5-15h8c4-1 1-5 3-7 6 3 6-5 9-7 4 1 3 10 11 6zM34 278c2-3 3-3 5-1l3 5 4-1c2 3 1 6 1 9 3 1 6-2 10-1l1 8c1 2-1 2-2 3-3 3-8 5-8 10-3 1-6-1-9-1-1 2 0 5-2 7-2-6-5-10-11-5-2-2-1-5-3-6-7-3-8-9-7-16h10c2-2-1-5 0-8 2-1 3 2 5 1 2 0 2-3 3-4zm712 108c7 6 10 13 8 21-3 9-10 14-19 15-7 1-15-4-19-11-1-2-2-5-1-7 0-3 1-5 4-5 3-1 5 0 6 3l4 7c4 2 7 2 10-1s2-5-2-7c-6-3-8-6-6-13 1-4 3-5 7-5 3 0 5 1 8 3zM125 676H86l-6-1c-4 0-6-2-6-5 0-4 3-5 6-5h64c3 0 5 2 5 5-1 3-2 5-5 5l-19 1zm76-454c4 2 5 4 4 8-1 3-3 4-6 4h-50l-7-1c-3 0-5-2-5-5 0-2 1-5 4-6h60zm-11-10h-40c-3 0-5-3-5-6 0-4 2-5 5-5h49c4 0 6 1 6 5s-2 6-6 6h-9zm373-86 3-6-4-1c-3 0-5-2-5-5 1-3 3-4 6-4 4 1 6-1 7-5 0-2 0-4 3-4 2 0 3 2 4 4l2 5c4 1 10-2 11 4s-5 5-8 6c0 2 2 3 3 4s3 3 1 5c-1 2-2 3-5 3h-13c-4 0-7-1-5-6zM246 672h36c3 1 5 3 5 6-1 3-3 5-6 5h-43c-3 0-6-2-6-5 0-4 2-6 6-6h8zm-58-482h-23c-5 0-7-3-7-6 0-5 3-6 7-6h34c6 0 8 3 7 7-1 3-3 4-5 4l-13 1zm122 504v-5c1-3 3-4 6-4s5 2 4 5c0 5 2 6 7 6 3 0 6 1 6 5 0 3-3 5-7 4-4 0-6 2-6 6 1 4 0 8-4 8-5 0-6-4-6-8s-2-6-6-6c-3 0-6-1-6-4s3-4 5-5c3-1 5 1 7-2zm-186-7c3 2 5 4 4 7s-4 4-7 4H91c-3 0-6-1-6-5s2-6 6-6h33zM431 71h-11c-3 0-5-2-5-5 0-4 2-6 5-6h28c3 0 5 2 5 5 0 4-2 6-5 6h-17zm20 9h12c3 0 6 1 6 5 0 3-2 6-5 6h-28c-3 0-5-3-5-6s2-5 6-5h14zm-305 98c4 0 7 1 7 6-1 5-4 5-8 5h-20c-5 0-7-2-7-6s3-5 7-5h21zm329-67h-24c-3 0-6-2-6-6s3-5 6-5h21c3 0 5 0 7 3 1 4-1 6-4 8zm238 587h-21c-4 0-7-1-7-5s3-6 7-6h20c4 0 7 2 7 5 0 4-2 6-6 6zM465 41c4 6 2 9-4 9l-17 1c-4-1-7-1-7-6s3-6 7-6c7 0 14-2 21 2zM162 157h13c3 1 5 3 5 6s-2 6-5 6h-14c-4 0-8-2-8-6s3-5 7-6h2zm299-95c8-4 15-2 22-1 3 0 3 3 3 5s-1 4-3 5c-7 1-13 1-19-1-4-1-4-4-3-8zm37 29h-15c-3 0-6-2-6-6 0-3 3-5 6-5h12c4 0 7 0 8 4 1 3-1 6-5 7zm2 20h-7c-3 0-5-2-5-6 0-3 1-5 5-5h13c3 0 6 1 6 5s-3 6-7 6h-5zm-371 90c8 0 10 1 10 5 0 5-3 6-10 6h-7c-4 0-7-1-7-6 0-4 3-5 7-5h7zm77-36c-4 4-15 6-20 3l-2-6c1-2 2-4 4-4h15c3 1 4 4 3 7zm296-94c-4 0-7-1-8-5 0-2 1-5 3-6 4-1 9-1 13 1 2 1 3 3 3 5-1 3-2 5-5 5h-6zm54 99c-1-6 1-8 6-8h6c4 0 5 2 5 5s-1 6-5 6-8 1-12-3zm6 11h6c3-1 6 0 5 4 0 4-1 7-5 6h-6c-3 0-6-1-6-5 0-3 2-6 6-5zM499 48c0-4-1-7 2-8s7-2 10 0c3 1 3 4 3 6-1 4-4 5-8 5-2 0-5 0-7-3zm-17 3c-4-1-7-2-7-7 0-3 3-5 6-5 4 0 7 1 8 5s-2 7-7 7zm113 595c-3 3-6 4-9 1-3-1-4-3-3-6 1-4 5-6 9-5 3 1 5 5 3 10zm161-199c-4 1-7-1-8-5 0-4 2-6 5-7 4-1 7 1 8 5 1 3-1 6-5 7zM407 746c4 2 5 4 4 7 0 3-2 5-4 5-3 1-5 0-7-2s-2-4-1-7c2-3 5-4 8-3zM16 406c4-2 7-2 9 1 2 2 3 5 1 7-2 3-4 4-7 3-5-1-6-5-3-11zm439 235c-4 1-7-1-8-5 0-4 1-7 5-7 4-1 7 1 8 4 1 4-2 6-5 8zm266 24c2-4 5-5 9-2 2 1 3 4 2 7-2 3-5 4-8 3s-5-4-3-8zM518 128c3 3 3 7 0 9-3 3-5 3-8 0-3-2-2-5-1-8 3-3 5-3 9-1zm226 445c3-4 6-3 9-2 2 1 3 3 3 5 0 3-2 4-4 5h-6c-2-2-3-5-2-8zM56 665c-1 7-4 9-8 7-3-1-4-3-4-5 0-3 2-5 4-6 3-1 6 1 8 4zm433-529c-2-4 0-7 3-9 3-1 6 0 7 3 2 3 1 6-2 8s-5 1-8-2zM118 511c-3-2-5-4-4-7s2-5 5-5 5 1 6 3c3 4 0 8-7 9zm361-374c-3 3-6 3-9 0-2-2-2-5 0-8 2-2 5-3 8-1s3 5 1 9zM27 667c0-4 2-6 6-6 3 0 5 2 5 6 0 3-2 5-5 6-3 0-6-2-6-6zm79-164c1 3 0 6-3 8-2 1-4 0-6-1-2-2-3-4-2-7 0-2 2-3 4-4 3 0 5 1 7 4zM342 74c-4 1-4 1-7-3 3 0 5 0 7 3zm169 382 43-36c2-2 4-4 8-3 2 1 4 3 5 6 0 3-2 6-4 8l-20 16a32041 32041 0 0 1-51 43c-4 2-7 1-9-2-3-3-3-6 0-9l15-12 13-11zm-269-19 47 40c6 5 6 9 2 12s-7 2-10 0l-24-20-43-36-3-3c-4-3-4-7-2-10 3-3 7-3 11 0l22 17zm160 52c-4-5-3-9 0-12l41-55 2-3c3-2 6-3 9-1 3 3 4 6 2 10l-10 14-32 43c-4 6-6 7-12 4zm-40-25 9 11c5 6 5 11 1 14s-8 1-12-4l-33-46-8-10c-2-4-2-7 1-10s8-2 11 2l31 43zm18-224c1-6 4-9 8-8s6 4 6 9v39c0 3 0 5-2 7-4 4-9 3-11-2l-1-7v-38zm14 152v31c-1 3-4 5-7 5-4-1-6-2-6-6-2-12-2-24 0-37 0-3 3-5 6-5s5 1 6 4l1 8z"/>
    <path d="m36 218 9-2c-4-8-3-14 2-18 4-3 11-3 14 1 5 4 4 11 0 17 3 2 8 0 11 2-1 8-3 10-10 10H43c-5 0-8-5-7-10zm-7 263c-1-5 2-10 2-14l4-4h10c2 0 3 0 4 2l-2 3c-3 3-5 7-9 9-2 1-2 3-1 4h3l9-8c1-1 2-2 3-1 2 0 2 2 2 4 0 10-13 18-22 13-3-2-3-5-3-8z"/>
  </svg>
  <style>
    @media (prefers-color-scheme:light){:root{filter:none}}@media (prefers-color-scheme:dark){:root{filter:invert(100%)}}
  </style>
</svg>
